<?xml version="1.0" encoding="UTF-8"?><svg id="Layer_1" xmlns="http://www.w3.org/2000/svg" viewBox="0 0 2266.71 344.32"><defs><style>.cls-1{fill:#caa962;}.cls-2{fill:#fff;}</style></defs><path class="cls-2" d="M284.76,98.67c-14.33-24.18-34.2-43.21-59.62-57.08-25.42-13.86-54.62-20.8-87.58-20.8H34.03v59.16h103.53c14.79,0,28.49,2.62,41.13,7.86,12.63,5.24,23.65,12.48,33.05,21.72,9.4,9.24,16.71,20.1,21.96,32.58,5.23,12.48,7.85,25.96,7.85,40.44s-2.62,27.96-7.85,40.44c-5.24,12.48-12.56,23.34-21.96,32.58-9.4,9.25-20.41,16.49-33.05,21.72-12.64,5.25-26.34,7.86-41.13,7.86H34.03v59.16h103.53c32.97,0,62.16-6.93,87.58-20.8,25.42-13.87,45.29-32.97,59.62-57.31,14.33-24.33,21.49-52.22,21.49-83.65s-7.16-59.69-21.49-83.88Z"/><path class="cls-1" d="M0,101.47v162.17s68.05-54.62,68.05-81.09c0-26.46-68.05-81.09-68.05-81.09Z"/><path class="cls-2" d="M441.58,344.32c-22.81,0-42.98-5.16-60.55-15.48-17.56-10.32-31.36-24.57-41.36-42.75-10.02-18.18-15.02-39.13-15.02-62.86s5.16-44.68,15.48-62.86c10.32-18.18,24.5-32.43,42.52-42.75,18.03-10.32,38.74-15.48,62.16-15.48,20.34,0,39.05,5.32,56.15,15.95,17.1,10.63,30.81,26.19,41.13,46.68,10.32,20.5,15.48,45.37,15.48,74.64h-169.16c1.54,15.41,8.16,27.66,19.87,36.75,11.71,9.09,24.96,13.63,39.75,13.63,12.63,0,22.95-2.7,30.97-8.09,8.01-5.38,14.17-12.4,18.49-21.02l54.54,21.26c-6.47,12.94-14.87,24.12-25.19,33.51-10.33,9.4-22.58,16.57-36.74,21.5-14.18,4.93-30.35,7.39-48.53,7.39ZM391.67,194.11h99.83c-.92-9.55-4.01-17.25-9.24-23.11-5.24-5.85-11.4-10.17-18.49-12.94-7.09-2.77-14.02-4.16-20.8-4.16s-13.48,1.31-21.03,3.92c-7.55,2.62-14.18,6.86-19.87,12.71-5.71,5.85-9.17,13.71-10.4,23.57Z"/><path class="cls-2" d="M654.64,338.78l-94.75-231.09h62.86l62.39,161.3,62.39-161.3h62.86l-94.74,231.09h-61.01Z"/><path class="cls-2" d="M941.19,344.32c-23.73,0-44.68-5.16-62.86-15.48-18.18-10.32-32.43-24.57-42.75-42.75-10.32-18.18-15.48-39.13-15.48-62.86s5.08-44.68,15.25-62.86,24.33-32.43,42.52-42.75c18.18-10.32,38.97-15.48,62.39-15.48s44.67,5.17,62.86,15.48c18.18,10.32,32.35,24.57,42.52,42.75,10.17,18.18,15.25,39.13,15.25,62.86s-5.08,44.68-15.25,62.86c-10.17,18.18-24.26,32.43-42.29,42.75-18.03,10.32-38.75,15.48-62.16,15.48ZM941.19,287.94c11.4,0,21.33-2.78,29.81-8.32,8.47-5.55,15.17-13.18,20.1-22.88,4.93-9.7,7.4-20.87,7.4-33.51s-2.47-23.8-7.4-33.51c-4.93-9.7-11.79-17.33-20.56-22.87-8.78-5.55-18.72-8.32-29.81-8.32s-21.49,2.77-30.27,8.32c-8.78,5.55-15.64,13.17-20.56,22.87-4.93,9.71-7.4,20.88-7.4,33.51s2.46,23.8,7.4,33.51c4.92,9.7,11.86,17.33,20.8,22.88,8.93,5.54,19.1,8.32,30.5,8.32Z"/><path class="cls-2" d="M1101.1,338.78V15.25h61.01v323.52h-61.01Z"/><path class="cls-2" d="M1297.06,344.32c-18.49,0-34.13-3.69-46.91-11.09-12.79-7.4-22.57-18.87-29.35-34.43-6.78-15.55-10.17-35.66-10.17-60.31V107.69h61.01v118.31c0,15.41,1.77,27.5,5.32,36.28,3.54,8.78,8.62,15.1,15.25,18.95,6.62,3.86,14.1,5.77,22.42,5.77,16.02.31,28.19-4.54,36.51-14.56,8.32-10.01,12.48-24.57,12.48-43.68v-121.08h61.01v231.09h-57.31l-2.31-31.43c-7.7,11.72-17.33,20.8-28.89,27.27-11.55,6.47-24.57,9.7-39.05,9.7Z"/><path class="cls-2" d="M1572.51,344.32c-25.58,0-44.91-6.31-58-18.94-13.1-12.63-19.65-30.66-19.65-54.08v-111.84h-37.44v-51.76h37.44V35.59h61.01v72.1h57.77v51.76h-57.77v98.44c0,9.87,2.16,17.33,6.47,22.42,4.31,5.08,10.63,7.63,18.95,7.63,3.08,0,6.47-.7,10.17-2.08,3.7-1.39,7.55-3.47,11.56-6.24l21.26,45.75c-7.4,5.54-15.64,10.09-24.72,13.63-9.1,3.54-18.11,5.31-27.04,5.31Z"/><path class="cls-1" d="M1697.29,70.25c-9.24,0-17.41-3.47-24.49-10.4-7.09-6.93-10.63-15.17-10.63-24.73s3.54-17.79,10.63-24.72c7.08-6.93,15.25-10.4,24.49-10.4s17.8,3.47,24.73,10.4c6.93,6.93,10.4,15.18,10.4,24.72s-3.47,17.8-10.4,24.73c-6.93,6.93-15.18,10.4-24.73,10.4Z"/><rect class="cls-2" x="1666.79" y="107.69" width="61.01" height="231.09"/><path class="cls-2" d="M1892.79,344.32c-23.73,0-44.68-5.16-62.86-15.48-18.19-10.32-32.43-24.57-42.75-42.75-10.33-18.18-15.48-39.13-15.48-62.86s5.08-44.68,15.25-62.86c10.17-18.18,24.33-32.43,42.52-42.75,18.17-10.32,38.97-15.48,62.39-15.48s44.67,5.17,62.86,15.48c18.18,10.32,32.35,24.57,42.52,42.75s15.25,39.13,15.25,62.86-5.08,44.68-15.25,62.86c-10.17,18.18-24.27,32.43-42.29,42.75-18.02,10.32-38.75,15.48-62.16,15.48ZM1892.79,287.94c11.39,0,21.33-2.78,29.81-8.32,8.47-5.55,15.17-13.18,20.1-22.88,4.93-9.7,7.4-20.87,7.4-33.51s-2.47-23.8-7.4-33.51c-4.93-9.7-11.79-17.33-20.57-22.87-8.78-5.55-18.72-8.32-29.81-8.32s-21.5,2.77-30.27,8.32c-8.78,5.55-15.65,13.17-20.57,22.87-4.93,9.71-7.4,20.88-7.4,33.51s2.46,23.8,7.4,33.51c4.92,9.7,11.85,17.33,20.8,22.88,8.93,5.54,19.1,8.32,30.5,8.32Z"/><path class="cls-2" d="M2052.7,338.78V107.69h57.31l2.77,31.42c7.4-12.02,16.87-21.18,28.42-27.5,11.56-6.31,24.73-9.47,39.52-9.47,18.18,0,33.74,3.7,46.68,11.09,12.94,7.4,22.8,18.88,29.58,34.43,6.78,15.57,10.01,35.67,9.71,60.32v130.79h-61.01v-118.32c0-15.71-1.77-27.88-5.31-36.51-3.55-8.63-8.55-14.86-15.03-18.72-6.47-3.85-14.02-5.78-22.64-5.78-15.72-.3-27.81,4.47-36.28,14.33-8.48,9.86-12.71,24.49-12.71,43.91v121.09h-61.01Z"/></svg>