<?xml version="1.0" encoding="UTF-8"?><svg id="Layer_1" xmlns="http://www.w3.org/2000/svg" viewBox="0 0 300 300"><defs><style>.cls-1{fill:#caa962;}.cls-2{fill:#fff;}.cls-3{fill:#233356;}</style></defs><rect class="cls-3" x="0" y="0" width="300" height="300"/><path class="cls-2" d="M236.82,96.1c-9.51-15.54-22.72-27.77-39.66-36.69-16.93-8.91-36.39-13.37-58.37-13.37h-68.02v45.15h68.02c9.11,0,17.53,1.44,25.25,4.31,7.72,2.87,14.46,6.93,20.2,12.18,5.74,5.25,10.2,11.49,13.37,18.71,3.16,7.23,4.75,15.1,4.75,23.61s-1.59,16.39-4.75,23.62c-3.17,7.23-7.63,13.47-13.37,18.71-5.75,5.25-12.48,9.31-20.2,12.18-7.72,2.87-16.14,4.31-25.25,4.31h-68.02v45.15h68.02c21.98,0,41.44-4.46,58.37-13.37,16.93-8.91,30.15-21.19,39.66-36.83,9.5-15.64,14.26-33.56,14.26-53.76s-4.75-38.36-14.26-53.91Z"/><path class="cls-1" d="M48.91,97.89v104.22s43.74-35.1,43.74-52.11c0-17.01-43.74-52.11-43.74-52.11Z"/></svg>